<mxfile host="app.diagrams.net" modified="2024-05-15T20:18:10.067Z" agent="Mozilla/5.0 (Windows NT 10.0; Win64; x64) AppleWebKit/537.36 (KHTML, like Gecko) Chrome/124.0.0.0 Safari/537.36" etag="KrvQMGl7HY6zS9W2VOYh" version="24.3.0" type="github">
  <diagram name="Página-1" id="yIUQjH4XLhtgX7MIMZPj">
    <mxGraphModel dx="2261" dy="746" grid="1" gridSize="10" guides="1" tooltips="1" connect="1" arrows="1" fold="1" page="1" pageScale="1" pageWidth="827" pageHeight="1169" math="0" shadow="0">
      <root>
        <mxCell id="0" />
        <mxCell id="1" parent="0" />
        <mxCell id="aU7Lm2bVsFttGZJTZ8PO-10" value="" style="edgeStyle=orthogonalEdgeStyle;rounded=0;orthogonalLoop=1;jettySize=auto;html=1;" edge="1" parent="1" source="aU7Lm2bVsFttGZJTZ8PO-8" target="aU7Lm2bVsFttGZJTZ8PO-9">
          <mxGeometry relative="1" as="geometry" />
        </mxCell>
        <mxCell id="aU7Lm2bVsFttGZJTZ8PO-8" value="ingresar a sistema" style="rounded=0;whiteSpace=wrap;html=1;" vertex="1" parent="1">
          <mxGeometry x="354" y="60" width="120" height="60" as="geometry" />
        </mxCell>
        <mxCell id="aU7Lm2bVsFttGZJTZ8PO-15" style="edgeStyle=orthogonalEdgeStyle;rounded=0;orthogonalLoop=1;jettySize=auto;html=1;entryX=0.5;entryY=0;entryDx=0;entryDy=0;" edge="1" parent="1" source="aU7Lm2bVsFttGZJTZ8PO-9" target="aU7Lm2bVsFttGZJTZ8PO-14">
          <mxGeometry relative="1" as="geometry" />
        </mxCell>
        <mxCell id="aU7Lm2bVsFttGZJTZ8PO-16" style="edgeStyle=orthogonalEdgeStyle;rounded=0;orthogonalLoop=1;jettySize=auto;html=1;entryX=0.5;entryY=0;entryDx=0;entryDy=0;" edge="1" parent="1" source="aU7Lm2bVsFttGZJTZ8PO-9" target="aU7Lm2bVsFttGZJTZ8PO-13">
          <mxGeometry relative="1" as="geometry" />
        </mxCell>
        <mxCell id="aU7Lm2bVsFttGZJTZ8PO-17" style="edgeStyle=orthogonalEdgeStyle;rounded=0;orthogonalLoop=1;jettySize=auto;html=1;entryX=0.5;entryY=0;entryDx=0;entryDy=0;" edge="1" parent="1" source="aU7Lm2bVsFttGZJTZ8PO-9" target="aU7Lm2bVsFttGZJTZ8PO-12">
          <mxGeometry relative="1" as="geometry" />
        </mxCell>
        <mxCell id="aU7Lm2bVsFttGZJTZ8PO-18" style="edgeStyle=orthogonalEdgeStyle;rounded=0;orthogonalLoop=1;jettySize=auto;html=1;" edge="1" parent="1" source="aU7Lm2bVsFttGZJTZ8PO-9" target="aU7Lm2bVsFttGZJTZ8PO-11">
          <mxGeometry relative="1" as="geometry" />
        </mxCell>
        <mxCell id="aU7Lm2bVsFttGZJTZ8PO-32" style="edgeStyle=orthogonalEdgeStyle;rounded=0;orthogonalLoop=1;jettySize=auto;html=1;entryX=0.5;entryY=0;entryDx=0;entryDy=0;" edge="1" parent="1" source="aU7Lm2bVsFttGZJTZ8PO-9" target="aU7Lm2bVsFttGZJTZ8PO-31">
          <mxGeometry relative="1" as="geometry" />
        </mxCell>
        <mxCell id="aU7Lm2bVsFttGZJTZ8PO-9" value="seleccionar area" style="rounded=0;whiteSpace=wrap;html=1;" vertex="1" parent="1">
          <mxGeometry x="354" y="160" width="120" height="60" as="geometry" />
        </mxCell>
        <mxCell id="aU7Lm2bVsFttGZJTZ8PO-11" value="mantencion" style="rounded=0;whiteSpace=wrap;html=1;" vertex="1" parent="1">
          <mxGeometry x="630" y="260" width="120" height="60" as="geometry" />
        </mxCell>
        <mxCell id="aU7Lm2bVsFttGZJTZ8PO-12" value="recursos humanos" style="rounded=0;whiteSpace=wrap;html=1;" vertex="1" parent="1">
          <mxGeometry x="480" y="260" width="120" height="60" as="geometry" />
        </mxCell>
        <mxCell id="aU7Lm2bVsFttGZJTZ8PO-13" value="operaciones" style="rounded=0;whiteSpace=wrap;html=1;" vertex="1" parent="1">
          <mxGeometry x="230" y="260" width="120" height="60" as="geometry" />
        </mxCell>
        <mxCell id="aU7Lm2bVsFttGZJTZ8PO-22" style="edgeStyle=orthogonalEdgeStyle;rounded=0;orthogonalLoop=1;jettySize=auto;html=1;entryX=0;entryY=0.5;entryDx=0;entryDy=0;" edge="1" parent="1" source="aU7Lm2bVsFttGZJTZ8PO-14" target="aU7Lm2bVsFttGZJTZ8PO-19">
          <mxGeometry relative="1" as="geometry">
            <Array as="points">
              <mxPoint x="60" y="290" />
              <mxPoint x="60" y="400" />
            </Array>
          </mxGeometry>
        </mxCell>
        <mxCell id="aU7Lm2bVsFttGZJTZ8PO-23" style="edgeStyle=orthogonalEdgeStyle;rounded=0;orthogonalLoop=1;jettySize=auto;html=1;entryX=0;entryY=0.5;entryDx=0;entryDy=0;" edge="1" parent="1" source="aU7Lm2bVsFttGZJTZ8PO-14" target="aU7Lm2bVsFttGZJTZ8PO-21">
          <mxGeometry relative="1" as="geometry">
            <Array as="points">
              <mxPoint x="60" y="290" />
              <mxPoint x="60" y="470" />
            </Array>
          </mxGeometry>
        </mxCell>
        <mxCell id="aU7Lm2bVsFttGZJTZ8PO-24" style="edgeStyle=orthogonalEdgeStyle;rounded=0;orthogonalLoop=1;jettySize=auto;html=1;entryX=0;entryY=0.5;entryDx=0;entryDy=0;" edge="1" parent="1" source="aU7Lm2bVsFttGZJTZ8PO-14" target="aU7Lm2bVsFttGZJTZ8PO-20">
          <mxGeometry relative="1" as="geometry">
            <Array as="points">
              <mxPoint x="60" y="290" />
              <mxPoint x="60" y="540" />
            </Array>
          </mxGeometry>
        </mxCell>
        <mxCell id="aU7Lm2bVsFttGZJTZ8PO-26" style="edgeStyle=orthogonalEdgeStyle;rounded=0;orthogonalLoop=1;jettySize=auto;html=1;entryX=0;entryY=0.5;entryDx=0;entryDy=0;" edge="1" parent="1" source="aU7Lm2bVsFttGZJTZ8PO-14" target="aU7Lm2bVsFttGZJTZ8PO-25">
          <mxGeometry relative="1" as="geometry">
            <Array as="points">
              <mxPoint x="60" y="290" />
              <mxPoint x="60" y="610" />
            </Array>
          </mxGeometry>
        </mxCell>
        <mxCell id="aU7Lm2bVsFttGZJTZ8PO-28" style="edgeStyle=orthogonalEdgeStyle;rounded=0;orthogonalLoop=1;jettySize=auto;html=1;entryX=0;entryY=0.5;entryDx=0;entryDy=0;" edge="1" parent="1" source="aU7Lm2bVsFttGZJTZ8PO-14" target="aU7Lm2bVsFttGZJTZ8PO-27">
          <mxGeometry relative="1" as="geometry">
            <Array as="points">
              <mxPoint x="60" y="290" />
              <mxPoint x="60" y="680" />
            </Array>
          </mxGeometry>
        </mxCell>
        <mxCell id="aU7Lm2bVsFttGZJTZ8PO-30" style="edgeStyle=orthogonalEdgeStyle;rounded=0;orthogonalLoop=1;jettySize=auto;html=1;entryX=0;entryY=0.5;entryDx=0;entryDy=0;" edge="1" parent="1" source="aU7Lm2bVsFttGZJTZ8PO-14" target="aU7Lm2bVsFttGZJTZ8PO-29">
          <mxGeometry relative="1" as="geometry">
            <Array as="points">
              <mxPoint x="60" y="290" />
              <mxPoint x="60" y="750" />
            </Array>
          </mxGeometry>
        </mxCell>
        <mxCell id="aU7Lm2bVsFttGZJTZ8PO-39" style="edgeStyle=orthogonalEdgeStyle;rounded=0;orthogonalLoop=1;jettySize=auto;html=1;entryX=0;entryY=0.5;entryDx=0;entryDy=0;" edge="1" parent="1" source="aU7Lm2bVsFttGZJTZ8PO-14" target="aU7Lm2bVsFttGZJTZ8PO-38">
          <mxGeometry relative="1" as="geometry">
            <Array as="points">
              <mxPoint x="60" y="290" />
              <mxPoint x="60" y="820" />
            </Array>
          </mxGeometry>
        </mxCell>
        <mxCell id="aU7Lm2bVsFttGZJTZ8PO-14" value="comercial" style="rounded=0;whiteSpace=wrap;html=1;" vertex="1" parent="1">
          <mxGeometry x="80" y="260" width="120" height="60" as="geometry" />
        </mxCell>
        <mxCell id="aU7Lm2bVsFttGZJTZ8PO-19" value="ingresar empresa" style="rounded=0;whiteSpace=wrap;html=1;" vertex="1" parent="1">
          <mxGeometry x="80" y="370" width="120" height="60" as="geometry" />
        </mxCell>
        <mxCell id="aU7Lm2bVsFttGZJTZ8PO-20" value="ingresar visitas" style="rounded=0;whiteSpace=wrap;html=1;" vertex="1" parent="1">
          <mxGeometry x="80" y="510" width="120" height="60" as="geometry" />
        </mxCell>
        <mxCell id="aU7Lm2bVsFttGZJTZ8PO-21" value="ingresar contactos" style="rounded=0;whiteSpace=wrap;html=1;" vertex="1" parent="1">
          <mxGeometry x="80" y="440" width="120" height="60" as="geometry" />
        </mxCell>
        <mxCell id="aU7Lm2bVsFttGZJTZ8PO-25" value="ingresar cotizaciones" style="rounded=0;whiteSpace=wrap;html=1;" vertex="1" parent="1">
          <mxGeometry x="80" y="580" width="120" height="60" as="geometry" />
        </mxCell>
        <mxCell id="aU7Lm2bVsFttGZJTZ8PO-27" value="ingresar programación" style="rounded=0;whiteSpace=wrap;html=1;" vertex="1" parent="1">
          <mxGeometry x="80" y="650" width="120" height="60" as="geometry" />
        </mxCell>
        <mxCell id="aU7Lm2bVsFttGZJTZ8PO-29" value="crear orden de trabajo" style="rounded=0;whiteSpace=wrap;html=1;" vertex="1" parent="1">
          <mxGeometry x="80" y="720" width="120" height="60" as="geometry" />
        </mxCell>
        <mxCell id="aU7Lm2bVsFttGZJTZ8PO-35" style="edgeStyle=orthogonalEdgeStyle;rounded=0;orthogonalLoop=1;jettySize=auto;html=1;entryX=0;entryY=0.5;entryDx=0;entryDy=0;" edge="1" parent="1" source="aU7Lm2bVsFttGZJTZ8PO-31" target="aU7Lm2bVsFttGZJTZ8PO-33">
          <mxGeometry relative="1" as="geometry">
            <Array as="points">
              <mxPoint x="-100" y="290" />
              <mxPoint x="-100" y="400" />
            </Array>
          </mxGeometry>
        </mxCell>
        <mxCell id="aU7Lm2bVsFttGZJTZ8PO-36" style="edgeStyle=orthogonalEdgeStyle;rounded=0;orthogonalLoop=1;jettySize=auto;html=1;entryX=0;entryY=0.5;entryDx=0;entryDy=0;" edge="1" parent="1" source="aU7Lm2bVsFttGZJTZ8PO-31" target="aU7Lm2bVsFttGZJTZ8PO-34">
          <mxGeometry relative="1" as="geometry">
            <Array as="points">
              <mxPoint x="-100" y="290" />
              <mxPoint x="-100" y="470" />
            </Array>
          </mxGeometry>
        </mxCell>
        <mxCell id="aU7Lm2bVsFttGZJTZ8PO-31" value="administrador" style="rounded=0;whiteSpace=wrap;html=1;" vertex="1" parent="1">
          <mxGeometry x="-80" y="260" width="120" height="60" as="geometry" />
        </mxCell>
        <mxCell id="aU7Lm2bVsFttGZJTZ8PO-33" value="ingresar comuna y región" style="rounded=0;whiteSpace=wrap;html=1;" vertex="1" parent="1">
          <mxGeometry x="-80" y="370" width="120" height="60" as="geometry" />
        </mxCell>
        <mxCell id="aU7Lm2bVsFttGZJTZ8PO-34" value="código y detalle equipos" style="rounded=0;whiteSpace=wrap;html=1;" vertex="1" parent="1">
          <mxGeometry x="-80" y="440" width="120" height="60" as="geometry" />
        </mxCell>
        <mxCell id="aU7Lm2bVsFttGZJTZ8PO-38" value="ingresar horas personal, valor del serivicio" style="rounded=0;whiteSpace=wrap;html=1;" vertex="1" parent="1">
          <mxGeometry x="80" y="790" width="120" height="60" as="geometry" />
        </mxCell>
      </root>
    </mxGraphModel>
  </diagram>
</mxfile>
